<?xml version="1.0" encoding="utf-8"?>
<!-- Generator: Adobe Illustrator 16.0.0, SVG Export Plug-In . SVG Version: 6.00 Build 0)  -->
<!DOCTYPE svg PUBLIC "-//W3C//DTD SVG 1.1//EN" "http://www.w3.org/Graphics/SVG/1.1/DTD/svg11.dtd">
<svg version="1.1" id="Layer_1" xmlns="http://www.w3.org/2000/svg" xmlns:xlink="http://www.w3.org/1999/xlink" x="0px" y="0px"
	 width="137px" height="81px" viewBox="0 0 137 81" enable-background="new 0 0 137 81" xml:space="preserve">
<g>
	<path fill="#2A3A68" d="M109.966,25.771c0.798-3.652,1.074-6.95,0.857-9.848c-0.544-0.184-1.024-0.338-1.425-0.455
		c-2.874-0.842-5.94,0.457-7.966,1.658c0.388,2.682,0.312,5.604-0.118,8.477L109.966,25.771z"/>
	<path fill="#2A3A68" d="M67.295,16.466C73.139,12.66,84.985,5.55,91.208,6.064c4.294,0.354,7.071,2.62,8.681,5.857
		c3.523-2.778,6.18-4.096,7.997-4.711c-2.603-3.506-6.851-5.409-12.584-5.408c-7.534,0.001-21.722,9.765-28.14,14.483L67.295,16.466
		z"/>
	<path fill="#2A3A68" d="M74.51,62.876c-5.728,4.057-11.003,6.36-15.397,8.197c-7.717,3.229-12.698,2.522-15.191,1.67l-0.127,0.125
		c9.775,5.014,21.056-0.256,27.381-2.725c2.292-0.895,6.575-3.354,11.423-6.914l-0.361-0.345L74.51,62.876z"/>
	<path fill="#3E3A39" d="M9.545,21.159l-3.942-6.943l0.45-0.157l0.759-0.265l3.738,7.099c-0.003,0.001-0.006,0.002-0.009,0.003
		c-0.001,0-0.003,0.001-0.004,0.001L9.545,21.159z M11.322,20.578l-3.158-5.997l-0.56-1.064l0.53-0.185l0.991-0.346l2.985,7.252
		L11.322,20.578z M12.875,19.916L9.91,12.714l0.708-0.247l0.271-0.095l1.331,2.61l2.189,4.291L12.875,19.916z M16.242,18.517
		c0,0.001-0.001,0.001-0.003,0.002l-1.062,0.436l-3.388-6.642l-0.11-0.216l1.978-0.69l1.987,4.706l0.954,2.26
		C16.478,18.421,16.36,18.469,16.242,18.517 M18.469,17.619c-0.115,0.046-0.229,0.091-0.344,0.137
		c-0.119,0.048-0.237,0.096-0.356,0.144c-0.135,0.054-0.269,0.108-0.403,0.162l-2.924-6.928l0.976-0.341l2.973,5.757l0.472,0.914
		L18.469,17.619z M21.282,16.52c-0.486,0.186-0.983,0.378-1.488,0.575c-0.005,0.002-0.01,0.004-0.015,0.006l-0.143,0.056
		l-2.666-5.163l-0.763-1.478l0.688-0.24l1.404-0.49l2.998,6.727L21.282,16.52z M22.075,16.22l-2.989-6.707l1.348-0.471l2.35,6.914
		L22.075,16.22z M24.3,15.408l-0.127,0.045c-0.197,0.069-0.398,0.141-0.604,0.215l-0.007,0.003l-0.264-0.779L21.217,8.77
		l1.739-0.606l0.967,4.414l0.603,2.752C24.451,15.355,24.376,15.381,24.3,15.408 M44.672,65.431
		C44.672,65.431,44.671,65.431,44.672,65.431 M44.654,65.414l-0.003,0.003 M40.964,74.437l-2.123-2.166l1.002-0.98l1.495,1.523
		l0.628,0.642L40.964,74.437z M43.331,72.119l-0.223,0.219l-0.046,0.045l-0.531,0.52l-0.533-0.543l-1.59-1.623l1.139-1.114
		l2.123,2.165L43.331,72.119z M44.604,70.874l-0.369,0.361l-2.123-2.166l1.139-1.115l2.124,2.166L44.604,70.874z M45.939,69.567
		L45.939,69.567l-2.123-2.166l-0.014-0.015l1.128-1.104l0.012-0.011l0.014,0.014l2.123,2.166L45.939,69.567z M47.644,67.899
		L47.644,67.899l-2.124-2.165l-0.003-0.004l-0.011-0.011l0.017-0.017l1.111-1.088l0.012-0.011l0.014,0.015l2.123,2.166l0,0
		L47.644,67.899z M50.647,64.961l-1.299,1.271h0l-2.123-2.165l-0.003-0.004l-0.011-0.011l0.017-0.016l1.296-1.269l2.136,2.179
		l0,0.001L50.647,64.961z M125.639,20.898c-0.002,0-0.003-0.001-0.005-0.001c-0.003-0.001-0.006-0.002-0.009-0.003l3.738-7.099
		l0.759,0.265l0.45,0.157l-3.942,6.943L125.639,20.898z M124.064,20.24l2.985-7.252l0.991,0.346l0.53,0.185l-0.561,1.064
		l-3.157,5.997L124.064,20.24z M121.767,19.273l2.188-4.291l1.332-2.61l0.271,0.095l0.708,0.247l-2.965,7.202L121.767,19.273z
		 M119.578,18.373l0.954-2.26l1.986-4.706l1.979,0.69l-0.111,0.216l-3.388,6.642l-1.062-0.436c-0.001,0-0.002-0.001-0.003-0.002
		C119.815,18.469,119.697,18.421,119.578,18.373 M117.313,17.463l0.473-0.914l2.973-5.757l0.976,0.341l-2.925,6.928
		c-0.135-0.054-0.269-0.108-0.403-0.162c-0.119-0.048-0.237-0.096-0.355-0.144c-0.115-0.046-0.23-0.091-0.345-0.137L117.313,17.463z
		 M114.878,16.514l2.998-6.727l1.403,0.49l0.688,0.24l-0.763,1.478l-2.666,5.163l-0.142-0.056c-0.006-0.002-0.011-0.004-0.017-0.006
		h0.001c-0.505-0.197-1.002-0.39-1.488-0.575L114.878,16.514z M113.392,15.956l2.35-6.914l1.349,0.471l-2.989,6.707L113.392,15.956z
		 M111.649,15.329l0.604-2.752l0.967-4.414l1.738,0.606l-2.08,6.122l-0.266,0.779l-0.007-0.003
		c-0.206-0.074-0.406-0.146-0.604-0.215l-0.127-0.045C111.8,15.381,111.725,15.355,111.649,15.329 M91.504,65.431
		C91.504,65.431,91.504,65.431,91.504,65.431 M91.523,65.417l-0.003-0.003 M94.209,73.455l0.629-0.642l1.494-1.523l1.003,0.98
		l-2.124,2.166L94.209,73.455z M92.505,71.787L92.505,71.787l2.123-2.165l1.14,1.114l-1.591,1.623l-0.532,0.543l-0.531-0.52
		l-0.046-0.045l-0.224-0.219L92.505,71.787z M90.801,70.12L90.801,70.12l2.123-2.166l1.14,1.115l-2.123,2.166l-0.37-0.361
		L90.801,70.12z M89.097,68.452L89.097,68.452l2.123-2.166l0.014-0.014l0.011,0.011l1.129,1.104l-0.014,0.015l-2.124,2.166
		L89.097,68.452z M87.393,66.785L87.393,66.785l2.123-2.166l0.014-0.015l0.011,0.011l1.111,1.088l0.017,0.017l-0.01,0.011
		l-0.004,0.004l-2.122,2.165L87.393,66.785z M85.515,64.947L85.515,64.947l2.137-2.18l1.296,1.269l0.017,0.016l-0.01,0.011
		l-0.004,0.004l-2.123,2.165l-1.299-1.271L85.515,64.947z M68.178,49.123l29.529,28.889l-0.578,0.59
		c-0.077,0.079-0.119,0.186-0.119,0.295c0.002,0.109,0.046,0.215,0.125,0.292l1.728,1.693C98.94,80.958,99.044,81,99.152,81h0.005
		c0.109,0,0.215-0.045,0.291-0.124l4.436-4.523c0.16-0.164,0.157-0.427-0.006-0.587l-1.729-1.693
		c-0.078-0.077-0.187-0.114-0.294-0.118c-0.11,0.001-0.215,0.046-0.292,0.124l-0.582,0.594L71.906,46.229l-0.427-0.427
		l27.663-27.075c0.237-0.204,5.518-4.648,10.256-3.26l15.966,6.213c0.116,0.04,0.447,0.14,0.477,0.148
		c0.121,0.033,0.244,0.062,0.365,0.088l0.577,0.106c0.002,0,0.004,0,0.006,0.001l0.29,0.03c0.246,0.025,0.491,0.042,0.736,0.042
		c1.931,0,3.825-0.757,5.216-2.118l0.888-0.869c0.748-0.732,1.06-1.779,0.834-2.801c-0.226-1.022-0.951-1.84-1.938-2.188l-0.001,0
		l-20.175-7.023l-0.031-0.012c-1.469-0.426-3.051-0.411-4.497,0.052c-2.58,0.824-6.983,3.105-13.309,9.295L68.088,42.483
		L41.374,16.431c-6.326-6.19-10.729-8.472-13.309-9.295c-1.447-0.462-3.028-0.478-4.497-0.052l-0.031,0.012L3.362,14.119l-0.001,0
		c-0.987,0.348-1.712,1.166-1.938,2.188c-0.227,1.022,0.085,2.069,0.833,2.801l0.888,0.869c1.391,1.361,3.285,2.118,5.216,2.118
		c0.245,0,0.491-0.017,0.735-0.042l0.291-0.03c0.001,0,0.003,0,0.005-0.001l0.577-0.106c0.122-0.027,0.244-0.055,0.366-0.088
		c0.029-0.008,0.361-0.108,0.476-0.148l15.966-6.213c4.738-1.388,10.019,3.057,10.256,3.26l27.662,27.075l-0.426,0.427
		L35.194,74.672l-0.582-0.594C34.535,74,34.43,73.955,34.32,73.954c-0.107,0.004-0.216,0.041-0.294,0.118l-1.728,1.693
		c-0.164,0.16-0.167,0.423-0.006,0.587l4.435,4.523C36.804,80.955,36.909,81,37.019,81h0.003c0.109,0,0.213-0.042,0.291-0.118
		l1.728-1.693c0.078-0.077,0.123-0.183,0.124-0.292s-0.042-0.216-0.119-0.295l-0.579-0.59l29.529-28.889l0.083-0.077L68.178,49.123z
		"/>
	<polygon fill="#F5D54D" points="131.625,25.298 2.7,25.298 18.312,44.033 2.7,62.768 131.625,62.768 116.013,44.033 	"/>
	<polygon fill="#2A3A68" points="32.95,28.997 32.95,26.917 26.158,26.917 26.158,28.997 27.767,28.997 27.767,32.379 
		22.332,32.379 22.332,28.997 23.94,28.997 23.94,26.917 17.156,26.917 17.156,28.997 19.262,28.997 19.262,37.429 17.156,37.429 
		17.156,39.509 23.94,39.509 23.94,37.429 22.332,37.429 22.332,33.9 27.767,33.9 27.767,37.429 26.158,37.429 26.158,39.509 
		32.95,39.509 32.95,37.429 30.836,37.429 30.836,28.997 	"/>
	<path fill="#2A3A68" d="M64.914,38.711c1.003-0.776,1.621-2.025,1.854-3.749h-3.589c-0.035,1.008-0.284,1.76-0.749,2.255
		c-0.465,0.495-1.147,0.742-2.046,0.742c-1.098,0-1.898-0.368-2.403-1.104s-0.756-1.92-0.756-3.551c0-1.613,0.254-2.792,0.76-3.538
		s1.306-1.118,2.399-1.118c0.82,0,1.518,0.225,2.091,0.674c0.573,0.449,0.976,1.083,1.208,1.901h2.7v-4.372h-2.811v1.402
		c-0.495-0.581-1.111-1.028-1.85-1.343c-0.739-0.314-1.549-0.472-2.429-0.472c-1.745,0-3.113,0.595-4.104,1.783
		c-0.991,1.188-1.487,2.84-1.487,4.954c0,2.328,0.532,4.027,1.594,5.096c1.063,1.069,2.758,1.604,5.087,1.604
		C62.4,39.875,63.91,39.487,64.914,38.711"/>
	<path fill="#2A3A68" d="M82.461,37.007c-0.149-0.12-0.261-0.274-0.333-0.465l-0.731-1.907c-0.223-0.591-0.52-1.033-0.891-1.325
		c-0.372-0.292-0.831-0.438-1.377-0.438h-1.007l4.18-3.922h1.587v-2.033h-5.65v2.033h0.948l-4.672,4.217v-4.217h1.499v-2.033h-6.513
		v2.033h2.043v8.237h-2.043v2.033h7.034v-2.033h-2.021v-2.713h2.166c0.531,0,0.916,0.076,1.155,0.228
		c0.239,0.152,0.438,0.422,0.598,0.811l1.051,2.605c0.159,0.394,0.354,0.676,0.583,0.846c0.229,0.17,0.529,0.255,0.901,0.255h3.217
		v-2.033h-1.246C82.771,37.187,82.611,37.127,82.461,37.007"/>
	<polygon fill="#2A3A68" points="86.887,39.509 86.887,37.429 88.933,37.429 88.933,28.997 86.887,28.997 86.887,26.917 
		99.959,26.917 99.959,31.774 97.03,31.774 97.03,28.997 92.018,28.997 92.018,32.416 94.724,32.416 94.724,34.029 92.018,34.029 
		92.018,37.429 97.03,37.429 97.03,34.514 99.959,34.514 99.959,39.509 	"/>
	<polygon fill="#2A3A68" points="102.786,28.997 102.786,26.917 109.63,26.917 109.63,28.997 108.177,28.997 110.802,32.92 
		113.382,28.997 111.914,28.997 111.914,26.917 118.105,26.917 118.105,28.997 116.252,28.997 112.032,35.138 112.032,37.429 
		114.494,37.429 114.494,39.509 106.931,39.509 106.931,37.429 108.978,37.429 108.978,35.192 104.699,28.997 	"/>
	<path fill="#2A3A68" d="M42.693,57.07h-2.084v-2.841h4.798c0.791,0,1.384-0.057,1.78-0.17c0.395-0.112,0.749-0.304,1.06-0.572
		c0.371-0.33,0.658-0.759,0.864-1.288c0.205-0.528,0.308-1.113,0.308-1.755c0-0.85-0.151-1.568-0.453-2.158
		s-0.744-1.034-1.328-1.333c-0.276-0.141-0.684-0.242-1.223-0.303s-1.315-0.092-2.328-0.092h-8.609v2.08h2.106v8.432h-2.106v2.081
		h7.215V57.07z"/>
	<polygon fill="#2A3A68" points="51.755,59.151 51.755,57.07 53.861,57.07 53.861,48.639 51.755,48.639 51.755,46.559 
		59.029,46.559 59.029,48.639 56.93,48.639 56.93,57.07 60.897,57.07 60.897,52.277 63.812,52.277 63.812,59.151 	"/>
	<polygon fill="#2A3A68" points="73.414,57.07 71.604,57.07 72.442,54.688 77.025,54.688 77.923,57.07 76.15,57.07 76.15,59.151 
		83.076,59.151 83.076,57.07 81.267,57.07 77.455,46.559 72.531,46.559 68.816,57.07 67.007,57.07 67.007,59.151 73.414,59.151 	"/>
	<polygon fill="#2A3A68" points="82.113,48.639 82.113,46.56 88.957,46.56 88.957,48.639 87.504,48.639 90.129,52.562 
		92.709,48.639 91.241,48.639 91.241,46.56 97.433,46.56 97.433,48.639 95.579,48.639 91.359,54.779 91.359,57.07 93.821,57.07 
		93.821,59.151 86.258,59.151 86.258,57.07 88.305,57.07 88.305,54.835 84.026,48.639 	"/>
	<path fill="#2A3A68" d="M51.868,31.782c-0.076-0.108-0.158-0.173-0.228-0.212c-0.308-2.803-1.999-4.139-3.374-4.768
		c-1.5-0.686-2.915-0.694-2.974-0.694c-0.06,0-1.474,0.008-2.974,0.694c-1.375,0.629-3.065,1.965-3.374,4.768
		c-0.07,0.039-0.152,0.104-0.228,0.212c-0.355,0.504-0.499,1.322-0.078,2.905c0.018,0.092,0.403,1.437,0.403,2.36
		c0,0.994,0.856,2.432,1.24,3.03c0.43,0.67,0.666,1.061,0.884,1.39c0.461,0.691,1.979,1.453,4.197,1.453
		c2.089,0,3.643-0.733,4.02-1.375c0.201-0.341,0.315-0.554,1.009-1.649c0.38-0.6,1.148-1.855,1.148-2.849
		c0-0.923,0.422-2.226,0.44-2.317C52.401,33.147,52.223,32.286,51.868,31.782"/>
	<path fill="#F5D54D" d="M50.766,31.782c-0.076-0.108-0.158-0.173-0.228-0.212c-0.307-2.803-1.998-4.139-3.373-4.768
		c-1.5-0.686-2.914-0.694-2.974-0.694c-0.059,0-1.474,0.008-2.973,0.694c-1.375,0.629-3.066,1.965-3.374,4.768
		c-0.07,0.039-0.152,0.104-0.228,0.212c-0.354,0.504-0.498,1.322-0.078,2.905c0.018,0.092,0.404,1.437,0.404,2.36
		c0,0.994,0.856,2.432,1.24,3.03c0.43,0.67,0.665,1.061,0.884,1.39c0.46,0.691,1.979,1.453,4.196,1.453
		c2.089,0,3.643-0.733,4.021-1.375c0.2-0.341,0.314-0.554,1.008-1.649c0.38-0.6,1.149-1.855,1.149-2.849
		c0-0.923,0.422-2.226,0.44-2.317C51.3,33.147,51.121,32.286,50.766,31.782"/>
	<path fill="#2A3A68" d="M49.606,32.99L49.606,32.99c-0.012-0.007-0.025-0.012-0.038-0.018c-0.06-0.026-0.127-0.033-0.191-0.016
		c-0.021,0.005-0.038,0.018-0.057,0.026c-0.052,0.026-0.098,0.061-0.129,0.112c-0.068,0.113-0.431,0.702-0.977,1.451l-0.085,0.116
		l-0.078-0.121c-0.039-0.059-0.078-0.116-0.119-0.173l-0.04-0.055l0.037-0.057c0.086-0.136,0.17-0.278,0.248-0.423
		c0.399-0.745,0.616-1.483,0.731-2c0.019-0.083,0.034-0.158,0.047-0.229c0.054-0.283,0.072-0.464,0.074-0.484
		c0.016-0.166-0.107-0.313-0.273-0.33c-0.164-0.013-0.314,0.108-0.33,0.273c0,0.004-0.014,0.137-0.053,0.355
		c-0.012,0.067-0.027,0.143-0.044,0.224c-0.104,0.482-0.307,1.202-0.693,1.918c-0.033,0.06-0.066,0.121-0.102,0.181l-0.061,0.104
		l-0.09-0.079c-0.455-0.399-1.024-0.699-1.69-0.891l-0.388-0.112l0.396-0.08c0.896-0.181,1.514-0.504,1.837-0.961
		c0.049-0.069,0.089-0.138,0.121-0.206c0.036-0.075,0.062-0.148,0.081-0.218c0.099-0.364,0.004-0.65-0.002-0.667
		c-0.026-0.076-0.081-0.138-0.154-0.173c-0.074-0.035-0.156-0.041-0.231-0.014c-0.077,0.027-0.139,0.081-0.174,0.153
		c-0.035,0.071-0.04,0.154-0.015,0.226c0.008,0.025,0.049,0.19-0.037,0.396c-0.022,0.053-0.049,0.107-0.091,0.163
		c-0.013,0.017-0.027,0.035-0.042,0.053c-0.252,0.293-0.946,0.738-2.84,0.806l-0.103,0.003V31.32v-0.228v-0.587
		c0-0.226-0.184-0.41-0.41-0.41c-0.225,0-0.409,0.184-0.409,0.41v0.587v0.228v0.926l-0.103-0.003
		c-1.895-0.068-2.587-0.513-2.84-0.806c-0.015-0.019-0.03-0.036-0.042-0.053c-0.041-0.056-0.069-0.11-0.09-0.163
		c-0.089-0.212-0.042-0.38-0.04-0.389c0.053-0.159-0.031-0.33-0.187-0.384c-0.157-0.055-0.331,0.028-0.386,0.186
		c-0.005,0.016-0.1,0.302-0.001,0.666c0.019,0.07,0.045,0.144,0.081,0.218c0.032,0.067,0.072,0.136,0.121,0.206
		c0.324,0.457,0.942,0.78,1.837,0.961l0.396,0.08l-0.389,0.112c-0.666,0.191-1.235,0.491-1.69,0.891l-0.09,0.079l-0.061-0.103
		c-0.035-0.061-0.068-0.121-0.101-0.181c-0.386-0.716-0.589-1.436-0.693-1.919c-0.018-0.082-0.033-0.157-0.044-0.224
		c-0.04-0.218-0.053-0.351-0.054-0.355c-0.016-0.166-0.165-0.289-0.33-0.273c-0.166,0.016-0.289,0.164-0.273,0.33
		c0.002,0.02,0.02,0.201,0.074,0.484c0.014,0.071,0.029,0.146,0.047,0.229c0.115,0.518,0.332,1.255,0.731,2
		c0.078,0.145,0.162,0.288,0.248,0.423l0.037,0.057l-0.04,0.055c-0.041,0.057-0.081,0.114-0.119,0.173l-0.078,0.12l-0.084-0.116
		c-0.601-0.824-0.974-1.446-0.977-1.452c-0.03-0.05-0.077-0.085-0.129-0.11c-0.019-0.009-0.036-0.021-0.057-0.027
		c-0.065-0.016-0.131-0.01-0.191,0.016c-0.013,0.005-0.026,0.011-0.038,0.018c-0.069,0.042-0.119,0.108-0.139,0.187
		c-0.02,0.078-0.008,0.16,0.034,0.229c0.032,0.052,0.217,0.359,0.516,0.801c0.075,0.111,0.156,0.229,0.245,0.356
		c0.147,0.209,0.312,0.437,0.492,0.674l0.032,0.043l-0.018,0.05c-0.11,0.299-0.181,0.596-0.226,0.879
		c-0.023,0.147-0.04,0.29-0.051,0.426c-0.061,0.768,0.053,1.347,0.061,1.384c0.032,0.16,0.193,0.268,0.357,0.236
		c0.163-0.034,0.269-0.193,0.236-0.357c0-0.003-0.02-0.105-0.038-0.276c-0.012-0.114-0.022-0.258-0.025-0.426
		c-0.006-0.321,0.015-0.725,0.11-1.15l0.042-0.197l0.129,0.155c0.409,0.489,0.816,0.925,1.21,1.295l0.071,0.066l-0.065,0.072
		c-0.096,0.107-0.185,0.223-0.262,0.342c-0.125,0.192-0.218,0.384-0.288,0.563c-0.032,0.083-0.06,0.164-0.083,0.24
		c-0.112,0.379-0.118,0.659-0.118,0.678c-0.001,0.146,0.117,0.265,0.265,0.267c0.143,0,0.261-0.117,0.263-0.26
		c0-0.002,0.002-0.112,0.035-0.284c0.014-0.072,0.033-0.156,0.06-0.247c0.059-0.198,0.154-0.433,0.308-0.667
		c0.064-0.099,0.138-0.194,0.219-0.285l0.063-0.07l0.072,0.06c0.702,0.568,1.363,0.919,1.966,1.043l0.079,0.016v1.216v0.228v0.565
		c0,0.226,0.184,0.41,0.409,0.41c0.226,0,0.41-0.184,0.41-0.41v-0.565v-0.229v-1.216l0.079-0.016
		c0.604-0.125,1.266-0.476,1.968-1.045l0.072-0.059l0.063,0.069c0.291,0.322,0.445,0.672,0.527,0.953
		c0.027,0.091,0.046,0.175,0.06,0.248c0.031,0.165,0.034,0.273,0.034,0.285c0.002,0.144,0.123,0.26,0.268,0.26
		c0.144-0.001,0.261-0.121,0.26-0.267c-0.001-0.019-0.006-0.298-0.119-0.677c-0.022-0.077-0.05-0.157-0.083-0.241
		c-0.069-0.179-0.162-0.371-0.288-0.563c-0.079-0.12-0.167-0.234-0.262-0.342l-0.064-0.072l0.07-0.066
		c0.394-0.37,0.801-0.806,1.21-1.295l0.129-0.155l0.043,0.197c0.094,0.423,0.114,0.829,0.108,1.151
		c-0.003,0.168-0.014,0.312-0.025,0.426c-0.017,0.168-0.036,0.271-0.037,0.273c-0.033,0.165,0.073,0.325,0.236,0.358
		c0.157,0.032,0.324-0.076,0.357-0.236c0.007-0.037,0.12-0.616,0.06-1.382c-0.011-0.137-0.027-0.279-0.051-0.427
		c-0.044-0.284-0.115-0.582-0.226-0.88l-0.018-0.05l0.033-0.043c0.18-0.237,0.344-0.465,0.492-0.674
		c0.089-0.126,0.17-0.245,0.245-0.356c0.299-0.442,0.484-0.749,0.516-0.801C49.795,33.262,49.749,33.076,49.606,32.99
		 M40.229,34.288c0.668-0.624,1.644-0.977,2.899-1.051l0.104-0.006v2.741l-0.108-0.01c-1.187-0.114-2.165-0.631-2.904-1.539
		l-0.059-0.072L40.229,34.288z M41.173,37.146l-0.058-0.053c-0.396-0.359-0.81-0.792-1.229-1.289
		c-0.155-0.184-0.304-0.367-0.445-0.547l-0.039-0.049l0.027-0.056c0.075-0.155,0.162-0.304,0.258-0.443l0.075-0.108l0.083,0.102
		c0.719,0.884,1.641,1.44,2.741,1.654l0.495,0.096l-0.495,0.098c-0.519,0.103-0.973,0.287-1.348,0.549L41.173,37.146z M43.368,38.38
		l-0.119-0.024c-0.533-0.107-1.131-0.428-1.775-0.954l-0.106-0.087l0.116-0.074c0.469-0.298,1.067-0.473,1.779-0.517l0.105-0.006
		V38.38z M44.051,33.23l0.104,0.006c1.255,0.074,2.23,0.427,2.899,1.051l0.067,0.063l-0.058,0.072
		c-0.74,0.907-1.717,1.425-2.905,1.539l-0.108,0.01V33.23z M45.809,37.403c-0.645,0.525-1.242,0.846-1.774,0.953l-0.119,0.024
		v-1.663l0.105,0.007c0.707,0.045,1.305,0.219,1.778,0.519l0.116,0.073L45.809,37.403z M47.844,35.257
		c-0.141,0.179-0.288,0.36-0.441,0.542c-0.421,0.498-0.836,0.933-1.234,1.293l-0.058,0.053l-0.065-0.045
		c-0.375-0.262-0.828-0.447-1.348-0.549l-0.495-0.098l0.495-0.096c1.1-0.214,2.022-0.77,2.741-1.654l0.083-0.102l0.075,0.108
		c0.097,0.14,0.183,0.29,0.258,0.443l0.027,0.056L47.844,35.257z"/>
	<path fill="#2A3A68" d="M50.217,31.407c-0.076-0.108-0.158-0.173-0.229-0.211c-0.308-2.803-1.998-4.139-3.373-4.769
		c-1.499-0.686-2.914-0.693-2.974-0.693c-0.06,0-1.474,0.007-2.974,0.693c-1.375,0.629-3.065,1.966-3.373,4.769
		c-0.07,0.039-0.152,0.103-0.228,0.211c-0.354,0.505-0.498,1.323-0.078,2.906c0.018,0.092,0.404,1.437,0.404,2.36
		c0,0.994,0.856,2.432,1.24,3.03c0.431,0.67,0.666,1.062,0.885,1.391c0.46,0.691,1.979,1.452,4.196,1.452
		c2.088,0,3.643-0.732,4.02-1.374c0.2-0.341,0.314-0.555,1.008-1.65c0.38-0.6,1.149-1.855,1.149-2.849
		c0-0.924,0.422-2.226,0.44-2.317C50.75,32.772,50.571,31.912,50.217,31.407 M49.71,33.405c-0.032,0.052-0.217,0.359-0.516,0.801
		c-0.006,0.062-0.01,0.126-0.013,0.195c-0.002,0.057-0.004,0.118-0.004,0.18c-0.001,0.097,0,0.2,0.005,0.311
		c0.019,0.42-0.092,0.9-0.301,1.397c-0.025,0.058-0.051,0.116-0.078,0.175c-0.026,0.058-0.054,0.116-0.083,0.173
		c0.06,0.766-0.053,1.346-0.06,1.382c-0.033,0.161-0.2,0.269-0.357,0.236c-0.164-0.034-0.269-0.194-0.236-0.358
		c0-0.003,0.02-0.105,0.037-0.273c-0.039,0.052-0.077,0.103-0.117,0.155c-0.04,0.05-0.079,0.1-0.12,0.149
		c-0.14,0.17-0.289,0.337-0.445,0.498c-0.026,0.026-0.052,0.052-0.078,0.079c-0.026,0.026-0.052,0.053-0.079,0.079
		c0.113,0.379,0.12,0.659,0.12,0.677c0.001,0.146-0.116,0.266-0.26,0.267c-0.146,0-0.266-0.117-0.268-0.26
		c0-0.012-0.003-0.121-0.034-0.285c-0.029,0.024-0.058,0.047-0.087,0.07c-0.03,0.024-0.059,0.048-0.089,0.072
		c-0.734,0.575-1.563,0.996-2.395,1.127c-0.033,0.005-0.066,0.012-0.099,0.017c-0.033,0.004-0.065,0.005-0.099,0.009v0.565
		c0,0.226-0.183,0.41-0.41,0.41c-0.226,0-0.409-0.184-0.409-0.41v-0.565c-0.033-0.003-0.066-0.005-0.099-0.009
		c-0.033-0.005-0.066-0.012-0.099-0.017c-0.832-0.131-1.66-0.552-2.393-1.126c-0.03-0.023-0.06-0.048-0.089-0.072
		c-0.029-0.023-0.059-0.047-0.088-0.071c-0.033,0.172-0.035,0.282-0.035,0.284c-0.002,0.144-0.12,0.26-0.263,0.26
		c-0.148-0.001-0.267-0.121-0.266-0.267c0-0.019,0.006-0.297,0.12-0.677c-0.027-0.026-0.053-0.053-0.079-0.079
		s-0.052-0.052-0.078-0.079c-0.157-0.161-0.306-0.327-0.446-0.498c-0.041-0.049-0.081-0.1-0.12-0.149
		c-0.04-0.052-0.079-0.104-0.118-0.156c0.018,0.17,0.037,0.273,0.038,0.276c0.033,0.164-0.073,0.323-0.236,0.356
		c-0.164,0.033-0.325-0.075-0.357-0.236c-0.007-0.036-0.121-0.615-0.061-1.383c-0.029-0.058-0.056-0.115-0.083-0.172
		c-0.027-0.059-0.053-0.118-0.078-0.176c-0.209-0.496-0.32-0.976-0.301-1.396c0.005-0.111,0.006-0.214,0.005-0.311
		c0-0.062-0.001-0.123-0.004-0.18c-0.003-0.069-0.007-0.134-0.013-0.195c-0.299-0.442-0.484-0.749-0.516-0.801
		c-0.042-0.069-0.054-0.151-0.034-0.229c0.02-0.079,0.069-0.145,0.139-0.187c0.012-0.007,0.024-0.012,0.037-0.018
		c-0.01-0.031-0.02-0.063-0.027-0.096c-0.007-0.032-0.012-0.065-0.015-0.1c-0.018-0.195,0.032-0.437,0.215-0.83
		c0.043-0.094,0.133-0.177,0.257-0.252c0.028-0.017,0.06-0.033,0.091-0.049c0.029-0.015,0.061-0.029,0.092-0.043
		c-0.054-0.282-0.072-0.463-0.074-0.483c-0.016-0.167,0.107-0.314,0.273-0.33c0.165-0.015,0.314,0.107,0.33,0.273
		c0,0.004,0.014,0.137,0.054,0.355c0.032-0.007,0.063-0.015,0.097-0.022c0.032-0.007,0.064-0.014,0.097-0.021
		c0.08-0.016,0.161-0.031,0.245-0.045c0.033-0.006,0.064-0.012,0.097-0.017c0.032-0.005,0.065-0.01,0.098-0.015
		c-0.098-0.363-0.004-0.65,0.001-0.666c0.056-0.158,0.229-0.242,0.386-0.187c0.156,0.055,0.239,0.226,0.187,0.385
		c-0.003,0.009-0.049,0.177,0.04,0.389c0.034-0.003,0.069-0.007,0.103-0.01c0.035-0.004,0.07-0.007,0.105-0.011
		c0.987-0.091,2.031-0.108,2.669-0.108c0.034,0,0.067,0,0.099,0c0.035,0,0.067,0,0.099,0v-0.587c0-0.226,0.184-0.41,0.409-0.41
		c0.227,0,0.41,0.184,0.41,0.41v0.587c0.032,0,0.064,0,0.099,0c0.032,0,0.065,0,0.099,0c0.638,0,1.683,0.018,2.669,0.108
		c0.035,0.003,0.07,0.007,0.105,0.011c0.035,0.003,0.069,0.006,0.104,0.01c0.086-0.206,0.044-0.371,0.037-0.396
		c-0.025-0.072-0.02-0.155,0.015-0.226c0.036-0.072,0.097-0.127,0.173-0.154c0.076-0.026,0.159-0.021,0.232,0.014
		c0.073,0.036,0.128,0.098,0.154,0.174c0.006,0.016,0.101,0.302,0.001,0.666c0.033,0.005,0.066,0.009,0.098,0.015
		c0.033,0.005,0.065,0.011,0.097,0.017c0.084,0.014,0.166,0.029,0.245,0.045c0.032,0.007,0.065,0.013,0.097,0.021
		c0.033,0.007,0.065,0.015,0.097,0.022c0.039-0.219,0.053-0.352,0.053-0.356c0.016-0.165,0.167-0.286,0.329-0.273
		c0.167,0.016,0.289,0.164,0.273,0.33c-0.002,0.02-0.02,0.201-0.074,0.483c0.032,0.014,0.063,0.028,0.092,0.043
		c0.031,0.016,0.063,0.032,0.091,0.049c0.124,0.075,0.214,0.158,0.257,0.252c0.183,0.393,0.233,0.635,0.215,0.83
		c-0.003,0.034-0.008,0.068-0.015,0.1s-0.017,0.064-0.027,0.096c0.013,0.005,0.026,0.011,0.038,0.018v0
		C49.749,33.075,49.796,33.262,49.71,33.405"/>
	<path fill="#FFFFFF" d="M42.585,36.357c-1.1-0.214-2.022-0.77-2.741-1.654l-0.083-0.102l-0.075,0.108
		c-0.096,0.139-0.183,0.288-0.258,0.444l-0.027,0.055l0.038,0.049c0.142,0.18,0.291,0.364,0.446,0.547
		c0.42,0.496,0.833,0.929,1.229,1.288l0.058,0.053l0.065-0.045c0.375-0.262,0.829-0.447,1.348-0.549l0.495-0.098L42.585,36.357z"/>
	<path fill="#FFFFFF" d="M43.128,33.237c-1.255,0.074-2.231,0.427-2.899,1.051l-0.067,0.063l0.059,0.072
		c0.739,0.907,1.717,1.425,2.904,1.539l0.108,0.01V33.23L43.128,33.237z"/>
	<path fill="#FFFFFF" d="M45.799,37.243c-0.472-0.299-1.071-0.474-1.778-0.519l-0.105-0.006v1.662l0.119-0.024
		c0.533-0.107,1.13-0.428,1.774-0.953l0.106-0.087L45.799,37.243z"/>
	<path fill="#FFFFFF" d="M46.76,38.734c-0.082-0.28-0.236-0.631-0.527-0.953l-0.063-0.07l-0.072,0.06
		c-0.703,0.569-1.365,0.92-1.969,1.044l-0.079,0.017v1.216v0.229c0.033-0.003,0.066-0.005,0.099-0.009
		c0.033-0.004,0.066-0.011,0.099-0.016c0.832-0.131,1.661-0.552,2.395-1.127c0.03-0.023,0.06-0.048,0.089-0.072
		c0.029-0.023,0.059-0.046,0.087-0.07C46.807,38.909,46.787,38.826,46.76,38.734"/>
	<path fill="#FFFFFF" d="M47.023,31.21c-0.035-0.003-0.07-0.006-0.105-0.01c-0.986-0.091-2.031-0.108-2.669-0.109
		c-0.034,0-0.067,0-0.099,0c-0.035,0-0.067,0-0.099,0v0.228v0.926l0.103-0.004c1.894-0.068,2.587-0.512,2.84-0.806
		c0.015-0.019,0.029-0.036,0.042-0.053c0.042-0.056,0.069-0.11,0.091-0.163C47.092,31.217,47.057,31.214,47.023,31.21"/>
	<path fill="#FFFFFF" d="M49.395,31.947c-0.043-0.094-0.133-0.177-0.257-0.252c-0.028-0.017-0.059-0.033-0.091-0.049
		c-0.029-0.015-0.06-0.028-0.092-0.042c-0.013,0.071-0.029,0.146-0.047,0.229c-0.115,0.518-0.332,1.255-0.731,2
		c-0.078,0.145-0.162,0.288-0.248,0.423l-0.037,0.057l0.04,0.055c0.042,0.057,0.081,0.114,0.119,0.173l0.078,0.121l0.085-0.116
		c0.546-0.749,0.909-1.338,0.978-1.451c0.03-0.051,0.077-0.086,0.129-0.112c0.019-0.009,0.036-0.021,0.056-0.026
		c0.065-0.017,0.132-0.01,0.192,0.016c0.011-0.032,0.02-0.063,0.027-0.096c0.007-0.032,0.012-0.065,0.015-0.1
		C49.628,32.581,49.578,32.34,49.395,31.947"/>
	<path fill="#FFFFFF" d="M48.02,36.046l-0.043-0.196l-0.129,0.154c-0.409,0.49-0.817,0.925-1.21,1.295l-0.07,0.066l0.064,0.072
		c0.096,0.107,0.184,0.222,0.262,0.342c0.125,0.192,0.218,0.384,0.288,0.563c0.032,0.083,0.06,0.165,0.083,0.241
		c0.027-0.026,0.052-0.053,0.079-0.079c0.026-0.026,0.052-0.052,0.078-0.079c0.156-0.161,0.305-0.327,0.445-0.498
		c0.041-0.05,0.081-0.099,0.12-0.149c0.04-0.051,0.079-0.104,0.117-0.155c0.012-0.114,0.022-0.257,0.025-0.425
		C48.134,36.875,48.113,36.47,48.02,36.046"/>
	<path fill="#FFFFFF" d="M39.355,34.256c-0.086-0.136-0.17-0.278-0.248-0.423c-0.399-0.745-0.616-1.483-0.731-2
		c-0.018-0.083-0.034-0.159-0.047-0.229c-0.032,0.014-0.063,0.028-0.092,0.042c-0.031,0.016-0.063,0.032-0.091,0.049
		c-0.124,0.075-0.214,0.159-0.257,0.252c-0.183,0.393-0.233,0.634-0.215,0.829c0.003,0.035,0.008,0.068,0.015,0.101
		s0.017,0.064,0.027,0.095c0.061-0.025,0.126-0.032,0.192-0.015c0.021,0.005,0.038,0.017,0.057,0.026
		c0.052,0.025,0.099,0.061,0.129,0.11c0.003,0.006,0.376,0.627,0.978,1.452l0.084,0.116l0.078-0.12
		c0.038-0.059,0.078-0.117,0.119-0.173l0.04-0.055L39.355,34.256z"/>
	<path fill="#FFFFFF" d="M48.275,31.396c-0.032-0.007-0.064-0.014-0.097-0.02c-0.08-0.016-0.161-0.032-0.244-0.046
		c-0.032-0.005-0.064-0.011-0.097-0.016c-0.033-0.005-0.065-0.01-0.098-0.015c-0.019,0.07-0.045,0.144-0.081,0.218
		c-0.031,0.067-0.071,0.136-0.12,0.205c-0.324,0.457-0.942,0.78-1.838,0.961l-0.396,0.08l0.389,0.112
		c0.667,0.191,1.235,0.491,1.69,0.891l0.09,0.079l0.061-0.104c0.035-0.06,0.069-0.121,0.102-0.18
		c0.386-0.718,0.589-1.437,0.693-1.918c0.017-0.082,0.032-0.158,0.044-0.225C48.34,31.411,48.309,31.403,48.275,31.396"/>
	<path fill="#FFFFFF" d="M49.177,34.581c0-0.062,0.002-0.123,0.004-0.18c0.003-0.069,0.007-0.133,0.013-0.195
		c-0.075,0.111-0.157,0.23-0.245,0.356c-0.147,0.209-0.312,0.436-0.492,0.674l-0.032,0.043l0.019,0.051
		c0.11,0.298,0.18,0.596,0.226,0.88c0.023,0.147,0.04,0.29,0.05,0.427c0.029-0.058,0.057-0.116,0.083-0.173
		c0.028-0.059,0.054-0.117,0.078-0.175c0.209-0.497,0.32-0.977,0.302-1.397C49.177,34.781,49.176,34.678,49.177,34.581"/>
	<path fill="#FFFFFF" d="M43.153,38.816c-0.603-0.124-1.265-0.475-1.966-1.043l-0.072-0.059l-0.063,0.07
		c-0.081,0.09-0.154,0.186-0.219,0.284c-0.154,0.235-0.249,0.47-0.308,0.668c-0.027,0.091-0.046,0.174-0.06,0.247
		c0.029,0.024,0.059,0.047,0.088,0.071c0.029,0.024,0.059,0.048,0.089,0.072c0.733,0.574,1.562,0.995,2.393,1.126
		c0.033,0.005,0.065,0.012,0.099,0.017c0.033,0.004,0.066,0.005,0.1,0.009v-0.228v-1.216L43.153,38.816z"/>
	<path fill="#FFFFFF" d="M38.826,35.236c-0.18-0.237-0.345-0.465-0.492-0.674c-0.088-0.126-0.17-0.245-0.245-0.356
		c0.006,0.061,0.01,0.126,0.013,0.195c0.002,0.057,0.004,0.117,0.004,0.18c0,0.097,0,0.2-0.006,0.311
		c-0.019,0.42,0.092,0.9,0.301,1.396c0.025,0.059,0.051,0.118,0.079,0.176c0.026,0.058,0.054,0.114,0.083,0.172
		c0.011-0.137,0.027-0.28,0.051-0.426c0.045-0.283,0.115-0.58,0.225-0.878l0.019-0.051L38.826,35.236z"/>
	<path fill="#FFFFFF" d="M40.647,37.3c-0.395-0.37-0.801-0.806-1.211-1.295l-0.128-0.154l-0.043,0.196
		c-0.094,0.425-0.115,0.829-0.109,1.15c0.003,0.167,0.014,0.312,0.025,0.425c0.039,0.052,0.078,0.104,0.118,0.156
		c0.039,0.051,0.079,0.1,0.12,0.149c0.141,0.171,0.29,0.337,0.446,0.498c0.025,0.026,0.051,0.052,0.078,0.079
		s0.052,0.053,0.079,0.079c0.022-0.076,0.05-0.157,0.083-0.241c0.069-0.179,0.162-0.371,0.288-0.563
		c0.077-0.119,0.166-0.233,0.262-0.341l0.064-0.072L40.647,37.3z"/>
	<path fill="#FFFFFF" d="M41.583,32.683c-0.895-0.181-1.513-0.504-1.837-0.961c-0.048-0.068-0.088-0.138-0.12-0.205
		c-0.036-0.075-0.062-0.148-0.081-0.218c-0.032,0.005-0.065,0.01-0.098,0.015c-0.032,0.005-0.064,0.011-0.097,0.017
		c-0.084,0.014-0.165,0.029-0.245,0.046c-0.032,0.006-0.065,0.013-0.097,0.02c-0.033,0.007-0.064,0.015-0.097,0.022
		c0.012,0.067,0.027,0.143,0.045,0.224c0.103,0.482,0.306,1.203,0.693,1.919c0.031,0.06,0.065,0.12,0.101,0.18l0.061,0.104
		l0.089-0.079c0.455-0.4,1.024-0.7,1.69-0.891l0.389-0.112L41.583,32.683z"/>
	<path fill="#FFFFFF" d="M43.134,31.091c-0.032,0-0.065,0-0.099,0c-0.638,0-1.683,0.018-2.669,0.108
		c-0.036,0.003-0.07,0.007-0.105,0.011c-0.034,0.003-0.068,0.006-0.103,0.01c0.021,0.052,0.049,0.106,0.09,0.163
		c0.012,0.017,0.027,0.035,0.042,0.053c0.252,0.294,0.946,0.738,2.84,0.806l0.103,0.004V31.32v-0.228
		C43.201,31.091,43.169,31.091,43.134,31.091"/>
	<path fill="#FFFFFF" d="M47.855,35.153c-0.075-0.154-0.161-0.304-0.258-0.443l-0.075-0.108l-0.083,0.102
		c-0.719,0.884-1.641,1.44-2.741,1.654l-0.496,0.096l0.496,0.098c0.52,0.102,0.973,0.287,1.348,0.549l0.065,0.045l0.058-0.053
		c0.397-0.36,0.813-0.796,1.234-1.293c0.153-0.182,0.301-0.364,0.441-0.542l0.039-0.049L47.855,35.153z"/>
	<path fill="#FFFFFF" d="M47.055,34.288c-0.668-0.624-1.644-0.977-2.899-1.051l-0.104-0.006v2.741l0.107-0.01
		c1.188-0.114,2.165-0.631,2.905-1.539l0.058-0.072L47.055,34.288z"/>
	<path fill="#FFFFFF" d="M43.262,36.725c-0.712,0.044-1.31,0.219-1.779,0.518l-0.116,0.073l0.106,0.087
		c0.645,0.525,1.242,0.846,1.775,0.954l0.119,0.024v-1.662L43.262,36.725z"/>
	<polygon fill="#FFFFFF" points="94.355,57.07 95.52,58.253 95.52,61.231 87.808,61.231 86.258,59.811 94.355,59.811 	"/>
	<polygon fill="#FFFFFF" points="53.349,50.719 51.754,49.3 53.349,49.3 	"/>
	<polygon fill="#FFFFFF" points="51.755,59.811 64.346,59.811 64.346,52.277 65.495,53.561 65.495,61.231 53.468,61.231 	"/>
	<polygon fill="#FFFFFF" points="57.45,56.411 57.45,49.3 59.556,49.3 59.556,46.559 60.712,47.888 60.712,50.719 58.621,50.719 
		58.621,56.411 	"/>
	<polygon fill="#FFFFFF" points="82.113,49.299 83.752,49.299 84.738,50.719 83.566,50.719 	"/>
	<polygon fill="#FFFFFF" points="88.579,49.299 89.491,49.299 89.491,46.559 90.707,47.851 90.707,49.299 91.59,49.299 
		90.114,51.416 	"/>
	<polygon fill="#FFFFFF" points="91.908,56.411 91.908,55.063 95.839,49.3 97.952,49.3 97.952,46.559 99.124,47.997 99.124,50.719 
		96.372,50.719 93.058,55.567 93.058,56.411 	"/>
	<polygon fill="#FFFFFF" points="18.75,31.077 17.155,29.657 18.75,29.657 	"/>
	<polygon fill="#FFFFFF" points="17.155,40.169 24.474,40.169 24.474,37.429 25.631,38.418 25.631,41.589 18.824,41.589 	"/>
	<polygon fill="#FFFFFF" points="22.851,31.737 22.851,29.657 24.474,29.657 24.474,26.917 25.631,28.081 25.631,31.078 
		24.022,31.078 24.022,31.737 	"/>
	<polygon fill="#FFFFFF" points="22.851,36.769 22.851,34.551 27.255,34.551 27.255,35.999 24.022,35.999 24.022,36.769 	"/>
	<polygon fill="#FFFFFF" points="27.255,30.839 26.158,29.657 27.255,29.657 	"/>
	<polygon fill="#FFFFFF" points="33.461,40.169 26.158,40.169 27.604,41.589 34.633,41.589 34.633,38.51 33.461,37.429 	"/>
	<polygon fill="#FFFFFF" points="33.461,29.657 31.37,29.657 31.37,36.769 32.52,36.769 32.52,31.077 34.633,31.077 34.633,28.227 
		33.461,26.917 	"/>
	<path fill="#FFFFFF" d="M65.407,39.146c-1.129,0.938-2.747,1.407-4.853,1.407c-0.895,0-1.712-0.077-2.451-0.229
		c-0.739-0.153-1.44-0.391-2.102-0.715c0.919,0.831,1.823,1.432,2.71,1.805c0.888,0.373,1.84,0.56,2.859,0.56
		c1.977,0,3.586-0.543,4.827-1.627c1.241-1.084,1.945-2.562,2.113-4.431l-1.216-0.953C67.166,36.814,66.537,38.208,65.407,39.146"/>
	<path fill="#FFFFFF" d="M60.828,30.582c0.366,0,0.745,0.078,1.138,0.234s0.812,0.393,1.257,0.71
		c-0.198-0.721-0.542-1.277-1.034-1.668c-0.492-0.391-1.094-0.586-1.806-0.586c-0.91,0-1.57,0.317-1.98,0.954
		c-0.41,0.635-0.616,1.662-0.616,3.079c0,1.228,0.146,2.152,0.438,2.772s0.764,1.022,1.416,1.205
		c-0.218-0.592-0.378-1.195-0.482-1.806s-0.156-1.283-0.156-2.016c0-1.088,0.136-1.839,0.408-2.255
		C59.684,30.79,60.156,30.582,60.828,30.582"/>
	<polygon fill="#FFFFFF" points="65.047,33.267 68.088,33.267 68.088,28.291 66.931,26.852 66.931,31.847 63.683,31.847 	"/>
	<polygon fill="#FFFFFF" points="69.309,29.657 70.888,31.16 70.888,29.657 	"/>
	<polygon fill="#FFFFFF" points="77.035,40.169 69.309,40.169 70.888,41.589 78.191,41.589 78.191,38.418 77.035,37.429 	"/>
	<polygon fill="#FFFFFF" points="74.959,32.04 77.673,29.657 77.673,28.191 76.509,26.917 76.509,29.657 74.959,29.657 	"/>
	<path fill="#FFFFFF" d="M77.58,35.454c-0.146-0.113-0.343-0.169-0.59-0.169h-2.031v1.485h3.292l-0.289-0.733
		C77.854,35.761,77.726,35.567,77.58,35.454"/>
	<path fill="#FFFFFF" d="M84.584,26.917v2.74h-1.973l-3.011,2.74c0.271,0.049,0.52,0.124,0.742,0.225
		c0.222,0.101,0.427,0.23,0.614,0.389l2.003-1.888h2.78v-2.786L84.584,26.917z"/>
	<path fill="#FFFFFF" d="M84.707,39.882v-2.695l1.13,1.155v2.911h-3.042c-0.392,0-0.74-0.058-1.047-0.17
		c-0.307-0.114-0.576-0.287-0.808-0.52l-1.008-1.012c0.131,0.113,0.259,0.197,0.384,0.25c0.126,0.054,0.269,0.081,0.428,0.081h0.239
		H84.707z"/>
	<path fill="#FFFFFF" d="M81.714,34.028l1.75,1.76c0.158,0.165,0.279,0.321,0.363,0.468c0.084,0.146,0.153,0.314,0.208,0.504
		l-0.986,0.009c-0.074,0-0.137-0.024-0.188-0.073c-0.053-0.049-0.105-0.144-0.16-0.284L81.714,34.028z"/>
	<polygon fill="#FFFFFF" points="86.887,29.657 88.421,29.657 88.421,31.077 	"/>
	<polygon fill="#FFFFFF" points="86.887,40.169 100.493,40.169 100.493,34.514 101.649,35.926 101.649,41.589 88.644,41.589 	"/>
	<polygon fill="#FFFFFF" points="92.552,29.657 96.526,29.657 96.526,31.077 93.716,31.077 93.716,31.774 92.552,31.774 	"/>
	<polygon fill="#FFFFFF" points="92.552,34.688 95.251,34.688 95.251,32.416 96.496,33.616 96.496,36.072 93.716,36.072 
		93.716,36.769 92.552,36.769 	"/>
	<polygon fill="#FFFFFF" points="97.03,32.416 100.493,32.416 100.493,26.917 101.649,28.319 101.649,33.864 98.32,33.864 	"/>
	<polygon fill="#FFFFFF" points="112.581,36.769 112.581,35.422 116.512,29.657 118.625,29.657 118.625,26.917 119.797,28.355 
		119.797,31.077 117.045,31.077 113.73,35.926 113.73,36.769 	"/>
	<polygon fill="#FFFFFF" points="102.786,29.657 104.425,29.657 105.411,31.077 104.239,31.077 	"/>
	<polygon fill="#FFFFFF" points="115.028,37.429 116.192,38.611 116.192,41.589 108.481,41.589 106.931,40.168 115.028,40.168 	"/>
	<polygon fill="#FFFFFF" points="109.252,29.657 110.164,29.657 110.164,26.917 111.38,28.209 111.38,29.657 112.263,29.657 
		110.787,31.774 	"/>
	<polygon fill="#FFFFFF" points="35.493,49.299 37.072,50.802 37.072,49.299 	"/>
	<polygon fill="#FFFFFF" points="43.22,59.811 35.493,59.811 37.072,61.231 44.376,61.231 44.376,58.061 43.22,57.07 	"/>
	<path fill="#FFFFFF" d="M50.768,49.813c-0.173-0.508-0.42-0.94-0.741-1.302l-1.305-1.448c0.44,0.459,0.765,0.977,0.975,1.554
		s0.315,1.236,0.315,1.975c0,0.703-0.111,1.343-0.333,1.921c-0.222,0.577-0.546,1.063-0.972,1.461
		c-0.361,0.33-0.764,0.565-1.212,0.706c-0.447,0.141-1.183,0.211-2.206,0.211h-4.13v1.521h4.205c1.072,0,1.896-0.083,2.469-0.248
		c0.573-0.165,1.092-0.439,1.557-0.824c0.524-0.428,0.928-0.978,1.212-1.649c0.284-0.673,0.426-1.412,0.426-2.219
		C51.028,50.872,50.941,50.319,50.768,49.813"/>
	<polygon fill="#FFFFFF" points="73.933,59.811 67.007,59.811 68.891,61.231 75.097,61.231 75.097,58.134 73.933,57.07 	"/>
	<polygon fill="#FFFFFF" points="76.662,55.32 72.776,55.32 72.398,56.411 77.025,56.411 	"/>
	<polygon fill="#FFFFFF" points="83.603,57.07 83.603,59.811 76.15,59.811 77.715,61.231 84.759,61.231 84.759,58.253 	"/>
	<polygon fill="#FFFFFF" points="82.816,56.411 80.311,49.354 77.989,46.559 81.586,56.411 	"/>
	<polygon fill="#FFFFFF" points="18.75,31.077 17.155,29.657 18.75,29.657 	"/>
	<polygon fill="#FFFFFF" points="17.155,40.169 24.474,40.169 24.474,37.429 25.631,38.418 25.631,41.589 18.824,41.589 	"/>
	<polygon fill="#FFFFFF" points="22.851,31.737 22.851,29.657 24.474,29.657 24.474,26.917 25.631,28.081 25.631,31.078 
		24.022,31.078 24.022,31.737 	"/>
	<polygon fill="#FFFFFF" points="22.851,36.769 22.851,34.551 27.255,34.551 27.255,35.999 24.022,35.999 24.022,36.769 	"/>
	<polygon fill="#FFFFFF" points="27.255,30.839 26.158,29.657 27.255,29.657 	"/>
	<polygon fill="#FFFFFF" points="94.355,57.07 95.52,58.253 95.52,61.231 87.808,61.231 86.258,59.811 94.355,59.811 	"/>
	<polygon fill="#FFFFFF" points="33.461,40.169 26.158,40.169 27.604,41.589 34.633,41.589 34.633,38.51 33.461,37.429 	"/>
	<polygon fill="#FFFFFF" points="33.461,29.657 31.37,29.657 31.37,36.769 32.52,36.769 32.52,31.077 34.633,31.077 34.633,28.227 
		33.461,26.917 	"/>
	<polygon fill="#FFFFFF" points="53.349,50.719 51.754,49.3 53.349,49.3 	"/>
	<polygon fill="#FFFFFF" points="51.755,59.811 64.346,59.811 64.346,52.277 65.495,53.561 65.495,61.231 53.468,61.231 	"/>
	<polygon fill="#FFFFFF" points="57.45,56.411 57.45,49.3 59.556,49.3 59.556,46.559 60.712,47.888 60.712,50.719 58.621,50.719 
		58.621,56.411 	"/>
	<polygon fill="#FFFFFF" points="82.113,49.299 83.752,49.299 84.738,50.719 83.566,50.719 	"/>
	<polygon fill="#FFFFFF" points="88.579,49.299 89.491,49.299 89.491,46.559 90.707,47.851 90.707,49.299 91.59,49.299 
		90.114,51.416 	"/>
	<polygon fill="#FFFFFF" points="91.908,56.411 91.908,55.063 95.839,49.3 97.952,49.3 97.952,46.559 99.124,47.997 99.124,50.719 
		96.372,50.719 93.058,55.567 93.058,56.411 	"/>
	<path fill="#F5D54D" d="M66.455,15.405c-0.009-0.012-0.019-0.022-0.028-0.033c-0.005-0.006-0.01-0.012-0.016-0.018
		c-0.034-0.037-0.083-0.085-0.152-0.137c-0.151-0.109-0.385-0.206-0.655-0.234c-0.271-0.032-0.583-0.013-0.913,0.063
		c-0.331,0.074-0.686,0.193-1.044,0.369c-0.718,0.347-1.479,0.878-2.162,1.6c-0.17,0.182-0.333,0.375-0.487,0.584
		c-0.154,0.208-0.302,0.427-0.427,0.668c-0.125,0.241-0.236,0.498-0.298,0.784c-0.03,0.143-0.047,0.293-0.035,0.448
		c0.008,0.077,0.02,0.154,0.045,0.227c0.019,0.049,0.033,0.083,0.053,0.12c0.013,0.023,0.028,0.048,0.048,0.079
		c0.019,0.024,0.04,0.046,0.061,0.069c0.083,0.083,0.189,0.15,0.303,0.196c0.144,0.057,0.293,0.085,0.438,0.098
		c0.23,0.02,0.453,0.003,0.668-0.027c0.037-0.005,0.073-0.011,0.109-0.018c0.02-0.003,0.04-0.006,0.06-0.009
		c0.019-0.004,0.036-0.009,0.054-0.013c0.51-0.107,0.979-0.285,1.411-0.495c0.89-0.44,1.621-1.013,2.163-1.598
		c0.273-0.292,0.491-0.596,0.658-0.891c0.015-0.025,0.028-0.051,0.042-0.077c0.018-0.032,0.034-0.065,0.05-0.097
		c0.016-0.031,0.03-0.063,0.044-0.093c0.092-0.202,0.156-0.401,0.19-0.588c0.05-0.252,0.031-0.491-0.022-0.665
		c-0.003-0.01-0.006-0.021-0.009-0.03c-0.034-0.095-0.072-0.163-0.099-0.206c-0.008-0.012-0.016-0.024-0.024-0.036
		c-0.01-0.013-0.015-0.021-0.014-0.021C66.47,15.425,66.465,15.418,66.455,15.405"/>
	<path fill="#F5D54D" d="M66.833,15.951c0.023,0.149,0.024,0.324-0.01,0.506c-0.032,0.184-0.093,0.379-0.178,0.581
		c-0.013,0.03-0.026,0.061-0.04,0.091c-0.015,0.032-0.03,0.064-0.045,0.096c-0.017,0.034-0.033,0.068-0.051,0.102
		c-0.158,0.305-0.372,0.616-0.626,0.931c-0.512,0.627-1.21,1.25-2.077,1.751c-0.435,0.249-0.914,0.465-1.458,0.588
		c-0.089,0.02-0.18,0.036-0.272,0.049c-0.033,0.005-0.065,0.009-0.098,0.014c-0.031,0.004-0.062,0.007-0.093,0.009
		c-0.134,0.011-0.272,0.015-0.418,0.003c-0.161-0.014-0.33-0.042-0.514-0.113c-0.021-0.008-0.041-0.019-0.062-0.028l0.865,1.169
		l0.097,0.131l0.192,0.261c0.581,0.786,2.465,0.419,4.115-0.8c1.649-1.219,2.551-2.914,1.97-3.699l-0.192-0.261l-0.097-0.131
		l-1.042-1.409c0.014,0.046,0.026,0.097,0.035,0.151C66.832,15.945,66.833,15.948,66.833,15.951"/>
	<path fill="#F5D54D" d="M66.575,15.408c0.005,0.005,0.01,0.011,0.015,0.016c0.002,0.002,0.004,0.005,0.006,0.007
		c-0.002-0.002-0.003-0.004-0.005-0.007C66.585,15.418,66.58,15.413,66.575,15.408"/>
	<path fill="#F5D54D" d="M66.648,15.494c-0.004-0.005-0.008-0.009-0.012-0.015C66.644,15.49,66.647,15.495,66.648,15.494
		c-0.001,0,0.003,0.006,0.011,0.017C66.655,15.505,66.652,15.5,66.648,15.494"/>
	<path fill="#FFFFFF" d="M45.25,50.087c0,1.088-0.882,1.971-1.972,1.971c-1.089,0-1.972-0.883-1.972-1.971
		c0-1.09,0.883-1.973,1.972-1.973C44.368,48.114,45.25,48.997,45.25,50.087"/>
	<path fill="#FFFFFF" d="M43.278,52.913c-1.559,0-2.827-1.268-2.827-2.827c0-1.559,1.269-2.827,2.827-2.827
		c1.559,0,2.827,1.269,2.827,2.827C46.105,51.646,44.837,52.913,43.278,52.913 M43.278,47.582c-1.381,0-2.504,1.124-2.504,2.504
		c0,1.382,1.124,2.505,2.504,2.505s2.504-1.123,2.504-2.505C45.782,48.706,44.659,47.582,43.278,47.582"/>
	<path fill="#FFFFFF" d="M74.082,52.182c-0.274,0.157-0.616-0.043-0.614-0.359l0.007-1.403l0.006-1.403
		c0.002-0.316,0.345-0.513,0.618-0.353l1.212,0.707l1.213,0.708c0.272,0.159,0.271,0.554-0.004,0.711l-1.219,0.696L74.082,52.182z"
		/>
	<polygon fill="#F4BC1A" points="116.013,44.033 100.4,62.768 131.625,62.768 	"/>
	<polygon fill="#F4BC1A" points="18.312,44.033 33.923,62.768 2.7,62.768 	"/>
</g>
<g>
</g>
<g>
</g>
<g>
</g>
<g>
</g>
<g>
</g>
<g>
</g>
<g>
</g>
<g>
</g>
<g>
</g>
<g>
</g>
<g>
</g>
<g>
</g>
<g>
</g>
<g>
</g>
<g>
</g>
</svg>
